<?xml version="1.0" encoding="utf-8" standalone="no"?>
<!DOCTYPE svg PUBLIC "-//W3C//DTD SVG 1.1//EN"
  "http://www.w3.org/Graphics/SVG/1.1/DTD/svg11.dtd">
<svg height="345.6pt" version="1.1" viewBox="0 0 460.8 345.6" width="460.8pt" xmlns="http://www.w3.org/2000/svg" xmlns:xlink="http://www.w3.org/1999/xlink">
 <metadata>
  <rdf:RDF xmlns:cc="http://creativecommons.org/ns#" xmlns:dc="http://purl.org/dc/elements/1.1/" xmlns:rdf="http://www.w3.org/1999/02/22-rdf-syntax-ns#">
   <cc:Work>
    <dc:type rdf:resource="http://purl.org/dc/dcmitype/StillImage"/>
    <dc:date>2022-03-22T06:18:42.331707</dc:date>
    <dc:format>image/svg+xml</dc:format>
    <dc:creator>
     <cc:Agent>
      <dc:title>Matplotlib v3.4.3, https://matplotlib.org/</dc:title>
     </cc:Agent>
    </dc:creator>
   </cc:Work>
  </rdf:RDF>
 </metadata>
 <defs>
  <style type="text/css">*{stroke-linecap:butt;stroke-linejoin:round;}</style>
 </defs>
 <g id="figure_1">
  <g id="patch_1">
   <path d="M 0 345.6 
L 460.8 345.6 
L 460.8 0 
L 0 0 
z
" style="fill:#ffffff;"/>
  </g>
  <g id="axes_1">
   <g id="patch_2">
    <path d="M 57.6 307.584 
L 414.72 307.584 
L 414.72 41.472 
L 57.6 41.472 
z
" style="fill:#ffffff;"/>
   </g>
   <g id="matplotlib.axis_1">
    <g id="xtick_1">
     <g id="line2d_1">
      <defs>
       <path d="M 0 0 
L 0 3.5 
" id="mb520defcd1" style="stroke:#000000;stroke-width:0.8;"/>
      </defs>
      <g>
       <use style="stroke:#000000;stroke-width:0.8;" x="73.832727" xlink:href="#mb520defcd1" y="307.584"/>
      </g>
     </g>
     <g id="text_1">
      <!-- 0 -->
      <g transform="translate(70.651477 322.182437)scale(0.1 -0.1)">
       <defs>
        <path d="M 2034 4250 
Q 1547 4250 1301 3770 
Q 1056 3291 1056 2328 
Q 1056 1369 1301 889 
Q 1547 409 2034 409 
Q 2525 409 2770 889 
Q 3016 1369 3016 2328 
Q 3016 3291 2770 3770 
Q 2525 4250 2034 4250 
z
M 2034 4750 
Q 2819 4750 3233 4129 
Q 3647 3509 3647 2328 
Q 3647 1150 3233 529 
Q 2819 -91 2034 -91 
Q 1250 -91 836 529 
Q 422 1150 422 2328 
Q 422 3509 836 4129 
Q 1250 4750 2034 4750 
z
" id="DejaVuSans-30" transform="scale(0.015625)"/>
       </defs>
       <use xlink:href="#DejaVuSans-30"/>
      </g>
     </g>
    </g>
    <g id="xtick_2">
     <g id="line2d_2">
      <g>
       <use style="stroke:#000000;stroke-width:0.8;" x="138.763636" xlink:href="#mb520defcd1" y="307.584"/>
      </g>
     </g>
     <g id="text_2">
      <!-- 2 -->
      <g transform="translate(135.582386 322.182437)scale(0.1 -0.1)">
       <defs>
        <path d="M 1228 531 
L 3431 531 
L 3431 0 
L 469 0 
L 469 531 
Q 828 903 1448 1529 
Q 2069 2156 2228 2338 
Q 2531 2678 2651 2914 
Q 2772 3150 2772 3378 
Q 2772 3750 2511 3984 
Q 2250 4219 1831 4219 
Q 1534 4219 1204 4116 
Q 875 4013 500 3803 
L 500 4441 
Q 881 4594 1212 4672 
Q 1544 4750 1819 4750 
Q 2544 4750 2975 4387 
Q 3406 4025 3406 3419 
Q 3406 3131 3298 2873 
Q 3191 2616 2906 2266 
Q 2828 2175 2409 1742 
Q 1991 1309 1228 531 
z
" id="DejaVuSans-32" transform="scale(0.015625)"/>
       </defs>
       <use xlink:href="#DejaVuSans-32"/>
      </g>
     </g>
    </g>
    <g id="xtick_3">
     <g id="line2d_3">
      <g>
       <use style="stroke:#000000;stroke-width:0.8;" x="203.694545" xlink:href="#mb520defcd1" y="307.584"/>
      </g>
     </g>
     <g id="text_3">
      <!-- 4 -->
      <g transform="translate(200.513295 322.182437)scale(0.1 -0.1)">
       <defs>
        <path d="M 2419 4116 
L 825 1625 
L 2419 1625 
L 2419 4116 
z
M 2253 4666 
L 3047 4666 
L 3047 1625 
L 3713 1625 
L 3713 1100 
L 3047 1100 
L 3047 0 
L 2419 0 
L 2419 1100 
L 313 1100 
L 313 1709 
L 2253 4666 
z
" id="DejaVuSans-34" transform="scale(0.015625)"/>
       </defs>
       <use xlink:href="#DejaVuSans-34"/>
      </g>
     </g>
    </g>
    <g id="xtick_4">
     <g id="line2d_4">
      <g>
       <use style="stroke:#000000;stroke-width:0.8;" x="268.625455" xlink:href="#mb520defcd1" y="307.584"/>
      </g>
     </g>
     <g id="text_4">
      <!-- 6 -->
      <g transform="translate(265.444205 322.182437)scale(0.1 -0.1)">
       <defs>
        <path d="M 2113 2584 
Q 1688 2584 1439 2293 
Q 1191 2003 1191 1497 
Q 1191 994 1439 701 
Q 1688 409 2113 409 
Q 2538 409 2786 701 
Q 3034 994 3034 1497 
Q 3034 2003 2786 2293 
Q 2538 2584 2113 2584 
z
M 3366 4563 
L 3366 3988 
Q 3128 4100 2886 4159 
Q 2644 4219 2406 4219 
Q 1781 4219 1451 3797 
Q 1122 3375 1075 2522 
Q 1259 2794 1537 2939 
Q 1816 3084 2150 3084 
Q 2853 3084 3261 2657 
Q 3669 2231 3669 1497 
Q 3669 778 3244 343 
Q 2819 -91 2113 -91 
Q 1303 -91 875 529 
Q 447 1150 447 2328 
Q 447 3434 972 4092 
Q 1497 4750 2381 4750 
Q 2619 4750 2861 4703 
Q 3103 4656 3366 4563 
z
" id="DejaVuSans-36" transform="scale(0.015625)"/>
       </defs>
       <use xlink:href="#DejaVuSans-36"/>
      </g>
     </g>
    </g>
    <g id="xtick_5">
     <g id="line2d_5">
      <g>
       <use style="stroke:#000000;stroke-width:0.8;" x="333.556364" xlink:href="#mb520defcd1" y="307.584"/>
      </g>
     </g>
     <g id="text_5">
      <!-- 8 -->
      <g transform="translate(330.375114 322.182437)scale(0.1 -0.1)">
       <defs>
        <path d="M 2034 2216 
Q 1584 2216 1326 1975 
Q 1069 1734 1069 1313 
Q 1069 891 1326 650 
Q 1584 409 2034 409 
Q 2484 409 2743 651 
Q 3003 894 3003 1313 
Q 3003 1734 2745 1975 
Q 2488 2216 2034 2216 
z
M 1403 2484 
Q 997 2584 770 2862 
Q 544 3141 544 3541 
Q 544 4100 942 4425 
Q 1341 4750 2034 4750 
Q 2731 4750 3128 4425 
Q 3525 4100 3525 3541 
Q 3525 3141 3298 2862 
Q 3072 2584 2669 2484 
Q 3125 2378 3379 2068 
Q 3634 1759 3634 1313 
Q 3634 634 3220 271 
Q 2806 -91 2034 -91 
Q 1263 -91 848 271 
Q 434 634 434 1313 
Q 434 1759 690 2068 
Q 947 2378 1403 2484 
z
M 1172 3481 
Q 1172 3119 1398 2916 
Q 1625 2713 2034 2713 
Q 2441 2713 2670 2916 
Q 2900 3119 2900 3481 
Q 2900 3844 2670 4047 
Q 2441 4250 2034 4250 
Q 1625 4250 1398 4047 
Q 1172 3844 1172 3481 
z
" id="DejaVuSans-38" transform="scale(0.015625)"/>
       </defs>
       <use xlink:href="#DejaVuSans-38"/>
      </g>
     </g>
    </g>
    <g id="xtick_6">
     <g id="line2d_6">
      <g>
       <use style="stroke:#000000;stroke-width:0.8;" x="398.487273" xlink:href="#mb520defcd1" y="307.584"/>
      </g>
     </g>
     <g id="text_6">
      <!-- 10 -->
      <g transform="translate(392.124773 322.182437)scale(0.1 -0.1)">
       <defs>
        <path d="M 794 531 
L 1825 531 
L 1825 4091 
L 703 3866 
L 703 4441 
L 1819 4666 
L 2450 4666 
L 2450 531 
L 3481 531 
L 3481 0 
L 794 0 
L 794 531 
z
" id="DejaVuSans-31" transform="scale(0.015625)"/>
       </defs>
       <use xlink:href="#DejaVuSans-31"/>
       <use x="63.623047" xlink:href="#DejaVuSans-30"/>
      </g>
     </g>
    </g>
    <g id="text_7">
     <!-- t -->
     <g transform="translate(234.199844 335.860562)scale(0.1 -0.1)">
      <defs>
       <path d="M 1172 4494 
L 1172 3500 
L 2356 3500 
L 2356 3053 
L 1172 3053 
L 1172 1153 
Q 1172 725 1289 603 
Q 1406 481 1766 481 
L 2356 481 
L 2356 0 
L 1766 0 
Q 1100 0 847 248 
Q 594 497 594 1153 
L 594 3053 
L 172 3053 
L 172 3500 
L 594 3500 
L 594 4494 
L 1172 4494 
z
" id="DejaVuSans-74" transform="scale(0.015625)"/>
      </defs>
      <use xlink:href="#DejaVuSans-74"/>
     </g>
    </g>
   </g>
   <g id="matplotlib.axis_2">
    <g id="ytick_1">
     <g id="line2d_7">
      <defs>
       <path d="M 0 0 
L -3.5 0 
" id="mda5a007b4e" style="stroke:#000000;stroke-width:0.8;"/>
      </defs>
      <g>
       <use style="stroke:#000000;stroke-width:0.8;" x="57.6" xlink:href="#mda5a007b4e" y="303.301036"/>
      </g>
     </g>
     <g id="text_8">
      <!-- −75 -->
      <g transform="translate(29.495313 307.100255)scale(0.1 -0.1)">
       <defs>
        <path d="M 678 2272 
L 4684 2272 
L 4684 1741 
L 678 1741 
L 678 2272 
z
" id="DejaVuSans-2212" transform="scale(0.015625)"/>
        <path d="M 525 4666 
L 3525 4666 
L 3525 4397 
L 1831 0 
L 1172 0 
L 2766 4134 
L 525 4134 
L 525 4666 
z
" id="DejaVuSans-37" transform="scale(0.015625)"/>
        <path d="M 691 4666 
L 3169 4666 
L 3169 4134 
L 1269 4134 
L 1269 2991 
Q 1406 3038 1543 3061 
Q 1681 3084 1819 3084 
Q 2600 3084 3056 2656 
Q 3513 2228 3513 1497 
Q 3513 744 3044 326 
Q 2575 -91 1722 -91 
Q 1428 -91 1123 -41 
Q 819 9 494 109 
L 494 744 
Q 775 591 1075 516 
Q 1375 441 1709 441 
Q 2250 441 2565 725 
Q 2881 1009 2881 1497 
Q 2881 1984 2565 2268 
Q 2250 2553 1709 2553 
Q 1456 2553 1204 2497 
Q 953 2441 691 2322 
L 691 4666 
z
" id="DejaVuSans-35" transform="scale(0.015625)"/>
       </defs>
       <use xlink:href="#DejaVuSans-2212"/>
       <use x="83.789062" xlink:href="#DejaVuSans-37"/>
       <use x="147.412109" xlink:href="#DejaVuSans-35"/>
      </g>
     </g>
    </g>
    <g id="ytick_2">
     <g id="line2d_8">
      <g>
       <use style="stroke:#000000;stroke-width:0.8;" x="57.6" xlink:href="#mda5a007b4e" y="267.787237"/>
      </g>
     </g>
     <g id="text_9">
      <!-- −50 -->
      <g transform="translate(29.495313 271.586455)scale(0.1 -0.1)">
       <use xlink:href="#DejaVuSans-2212"/>
       <use x="83.789062" xlink:href="#DejaVuSans-35"/>
       <use x="147.412109" xlink:href="#DejaVuSans-30"/>
      </g>
     </g>
    </g>
    <g id="ytick_3">
     <g id="line2d_9">
      <g>
       <use style="stroke:#000000;stroke-width:0.8;" x="57.6" xlink:href="#mda5a007b4e" y="232.273437"/>
      </g>
     </g>
     <g id="text_10">
      <!-- −25 -->
      <g transform="translate(29.495313 236.072656)scale(0.1 -0.1)">
       <use xlink:href="#DejaVuSans-2212"/>
       <use x="83.789062" xlink:href="#DejaVuSans-32"/>
       <use x="147.412109" xlink:href="#DejaVuSans-35"/>
      </g>
     </g>
    </g>
    <g id="ytick_4">
     <g id="line2d_10">
      <g>
       <use style="stroke:#000000;stroke-width:0.8;" x="57.6" xlink:href="#mda5a007b4e" y="196.759638"/>
      </g>
     </g>
     <g id="text_11">
      <!-- 0 -->
      <g transform="translate(44.2375 200.558857)scale(0.1 -0.1)">
       <use xlink:href="#DejaVuSans-30"/>
      </g>
     </g>
    </g>
    <g id="ytick_5">
     <g id="line2d_11">
      <g>
       <use style="stroke:#000000;stroke-width:0.8;" x="57.6" xlink:href="#mda5a007b4e" y="161.245839"/>
      </g>
     </g>
     <g id="text_12">
      <!-- 25 -->
      <g transform="translate(37.875 165.045058)scale(0.1 -0.1)">
       <use xlink:href="#DejaVuSans-32"/>
       <use x="63.623047" xlink:href="#DejaVuSans-35"/>
      </g>
     </g>
    </g>
    <g id="ytick_6">
     <g id="line2d_12">
      <g>
       <use style="stroke:#000000;stroke-width:0.8;" x="57.6" xlink:href="#mda5a007b4e" y="125.73204"/>
      </g>
     </g>
     <g id="text_13">
      <!-- 50 -->
      <g transform="translate(37.875 129.531259)scale(0.1 -0.1)">
       <use xlink:href="#DejaVuSans-35"/>
       <use x="63.623047" xlink:href="#DejaVuSans-30"/>
      </g>
     </g>
    </g>
    <g id="ytick_7">
     <g id="line2d_13">
      <g>
       <use style="stroke:#000000;stroke-width:0.8;" x="57.6" xlink:href="#mda5a007b4e" y="90.218241"/>
      </g>
     </g>
     <g id="text_14">
      <!-- 75 -->
      <g transform="translate(37.875 94.01746)scale(0.1 -0.1)">
       <use xlink:href="#DejaVuSans-37"/>
       <use x="63.623047" xlink:href="#DejaVuSans-35"/>
      </g>
     </g>
    </g>
    <g id="ytick_8">
     <g id="line2d_14">
      <g>
       <use style="stroke:#000000;stroke-width:0.8;" x="57.6" xlink:href="#mda5a007b4e" y="54.704442"/>
      </g>
     </g>
     <g id="text_15">
      <!-- 100 -->
      <g transform="translate(31.5125 58.50366)scale(0.1 -0.1)">
       <use xlink:href="#DejaVuSans-31"/>
       <use x="63.623047" xlink:href="#DejaVuSans-30"/>
       <use x="127.246094" xlink:href="#DejaVuSans-30"/>
      </g>
     </g>
    </g>
    <g id="text_16">
     <!-- x -->
     <g transform="translate(23.415625 177.487375)rotate(-90)scale(0.1 -0.1)">
      <defs>
       <path d="M 3513 3500 
L 2247 1797 
L 3578 0 
L 2900 0 
L 1881 1375 
L 863 0 
L 184 0 
L 1544 1831 
L 300 3500 
L 978 3500 
L 1906 2253 
L 2834 3500 
L 3513 3500 
z
" id="DejaVuSans-78" transform="scale(0.015625)"/>
      </defs>
      <use xlink:href="#DejaVuSans-78"/>
     </g>
    </g>
   </g>
   <g id="line2d_15">
    <path clip-path="url(#p710379f9ce)" d="M 73.832727 196.049362 
L 77.112066 195.917467 
L 80.391405 195.808763 
L 83.670744 195.723248 
L 86.950083 195.660924 
L 90.229421 195.621791 
L 93.50876 195.605847 
L 96.788099 195.613094 
L 100.067438 195.643532 
L 103.346777 195.697159 
L 106.626116 195.773977 
L 109.905455 195.873986 
L 113.184793 195.997184 
L 116.464132 196.143573 
L 119.743471 196.313152 
L 123.02281 196.505922 
L 126.302149 196.721882 
L 129.581488 196.961032 
L 132.860826 197.223372 
L 136.140165 197.508903 
L 139.419504 197.817624 
L 142.698843 198.149536 
L 145.978182 198.504637 
L 149.257521 198.882929 
L 152.53686 199.284412 
L 155.816198 199.709084 
L 159.095537 200.156948 
L 162.374876 200.628001 
L 165.654215 201.122245 
L 168.933554 201.639679 
L 172.212893 202.180303 
L 175.492231 202.744117 
L 178.77157 203.331122 
L 182.050909 203.941318 
L 185.330248 204.574703 
L 188.609587 205.231279 
L 191.888926 205.911045 
L 195.168264 206.614002 
L 198.447603 207.340149 
L 201.726942 208.089486 
L 205.006281 208.862013 
L 208.28562 209.657731 
L 211.564959 210.476639 
L 214.844298 211.318738 
L 218.123636 212.184027 
L 221.402975 213.072506 
L 224.682314 213.984175 
L 227.961653 214.919035 
L 231.240992 215.877085 
L 234.520331 216.858325 
L 237.799669 217.862756 
L 241.079008 218.890377 
L 244.358347 219.941188 
L 247.637686 221.01519 
L 250.917025 222.112382 
L 254.196364 223.232764 
L 257.475702 224.376337 
L 260.755041 225.5431 
L 264.03438 226.733053 
L 267.313719 227.946196 
L 270.593058 229.18253 
L 273.872397 230.442055 
L 277.151736 231.724769 
L 280.431074 233.030674 
L 283.710413 234.359769 
L 286.989752 235.712054 
L 290.269091 237.08753 
L 293.54843 238.486196 
L 296.827769 239.908053 
L 300.107107 241.3531 
L 303.386446 242.821337 
L 306.665785 244.312764 
L 309.945124 245.827382 
L 313.224463 247.36519 
L 316.503802 248.926188 
L 319.78314 250.510377 
L 323.062479 252.117756 
L 326.341818 253.748325 
L 329.621157 255.402085 
L 332.900496 257.079034 
L 336.179835 258.779175 
L 339.459174 260.502505 
L 342.738512 262.249026 
L 346.017851 264.018737 
L 349.29719 265.811639 
L 352.576529 267.627731 
L 355.855868 269.467013 
L 359.135207 271.329485 
L 362.414545 273.215148 
L 365.693884 275.124001 
L 368.973223 277.056045 
L 372.252562 279.011278 
L 375.531901 280.989703 
L 378.81124 282.991317 
L 382.090579 285.016122 
L 385.369917 287.064117 
L 388.649256 289.135302 
L 391.928595 291.229678 
L 395.207934 293.347244 
L 398.487273 295.488 
" style="fill:none;stroke:#1f77b4;stroke-linecap:square;stroke-width:3;"/>
   </g>
   <g id="line2d_16">
    <path clip-path="url(#p710379f9ce)" d="M 106.626116 189.613831 
L 109.905455 189.183361 
L 113.184793 188.752891 
L 116.464132 188.322421 
L 119.743471 187.89195 
L 123.02281 187.46148 
L 126.302149 187.03101 
L 129.581488 186.600539 
L 132.860826 186.170069 
L 136.140165 185.739599 
L 139.419504 185.309128 
L 142.698843 184.878658 
L 145.978182 184.448188 
L 149.257521 184.017718 
L 152.53686 183.587247 
L 155.816198 183.156777 
L 159.095537 182.726307 
L 162.374876 182.295836 
L 165.654215 181.865366 
L 168.933554 181.434896 
L 172.212893 181.004426 
L 175.492231 180.573955 
L 178.77157 180.143485 
L 182.050909 179.713015 
L 185.330248 179.282544 
L 188.609587 178.852074 
L 191.888926 178.421604 
L 195.168264 177.991134 
L 198.447603 177.560663 
L 201.726942 177.130193 
L 205.006281 176.699723 
L 208.28562 176.269252 
L 211.564959 175.838782 
L 214.844298 175.408312 
L 218.123636 174.977841 
L 221.402975 174.547371 
L 224.682314 174.116901 
L 227.961653 173.686431 
L 231.240992 173.25596 
L 234.520331 172.82549 
L 237.799669 172.39502 
L 241.079008 171.964549 
L 244.358347 171.534079 
L 247.637686 171.103609 
L 250.917025 170.673139 
L 254.196364 170.242668 
L 257.475702 169.812198 
L 260.755041 169.381728 
L 264.03438 168.951257 
L 267.313719 168.520787 
L 270.593058 168.090317 
L 273.872397 167.659846 
L 277.151736 167.229376 
L 280.431074 166.798906 
L 283.710413 166.368436 
L 286.989752 165.937965 
L 290.269091 165.507495 
L 293.54843 165.077025 
L 296.827769 164.646554 
L 300.107107 164.216084 
L 303.386446 163.785614 
L 306.665785 163.355144 
L 309.945124 162.924673 
L 313.224463 162.494203 
L 316.503802 162.063733 
L 319.78314 161.633262 
L 323.062479 161.202792 
L 326.341818 160.772322 
L 329.621157 160.341851 
L 332.900496 159.911381 
L 336.179835 159.480911 
L 339.459174 159.050441 
L 342.738512 158.61997 
L 346.017851 158.1895 
L 349.29719 157.75903 
L 352.576529 157.328559 
L 355.855868 156.898089 
L 359.135207 156.467619 
L 362.414545 156.037149 
L 365.693884 155.606678 
L 368.973223 155.176208 
L 372.252562 154.745738 
L 375.531901 154.315267 
L 378.81124 153.884797 
L 382.090579 153.454327 
L 385.369917 153.023857 
L 388.649256 152.593386 
L 391.928595 152.162916 
L 395.207934 151.732446 
L 398.487273 151.301975 
" style="fill:none;stroke:#ff7f0e;stroke-linecap:square;stroke-width:3;"/>
   </g>
   <g id="line2d_17">
    <path clip-path="url(#p710379f9ce)" d="M 172.212893 186.598974 
L 175.492231 185.853695 
L 178.77157 185.073631 
L 182.050909 184.258781 
L 185.330248 183.409146 
L 188.609587 182.524725 
L 191.888926 181.605519 
L 195.168264 180.651527 
L 198.447603 179.66275 
L 201.726942 178.639187 
L 205.006281 177.580839 
L 208.28562 176.487705 
L 211.564959 175.359786 
L 214.844298 174.197081 
L 218.123636 172.999591 
L 221.402975 171.767316 
L 224.682314 170.500255 
L 227.961653 169.198408 
L 231.240992 167.861776 
L 234.520331 166.490359 
L 237.799669 165.084156 
L 241.079008 163.643167 
L 244.358347 162.167393 
L 247.637686 160.656834 
L 250.917025 159.111489 
L 254.196364 157.531359 
L 257.475702 155.916443 
L 260.755041 154.266742 
L 264.03438 152.582255 
L 267.313719 150.862983 
L 270.593058 149.108925 
L 273.872397 147.320082 
L 277.151736 145.496453 
L 280.431074 143.638039 
L 283.710413 141.744839 
L 286.989752 139.816854 
L 290.269091 137.854083 
L 293.54843 135.856527 
L 296.827769 133.824186 
L 300.107107 131.757059 
L 303.386446 129.655146 
L 306.665785 127.518448 
L 309.945124 125.346965 
L 313.224463 123.140696 
L 316.503802 120.899641 
L 319.78314 118.623801 
L 323.062479 116.313176 
L 326.341818 113.967765 
L 329.621157 111.587569 
L 332.900496 109.172587 
L 336.179835 106.72282 
L 339.459174 104.238267 
L 342.738512 101.718929 
L 346.017851 99.164805 
L 349.29719 96.575896 
L 352.576529 93.952201 
L 355.855868 91.293721 
L 359.135207 88.600455 
L 362.414545 85.872404 
L 365.693884 83.109567 
L 368.973223 80.311945 
L 372.252562 77.479538 
L 375.531901 74.612345 
L 378.81124 71.710366 
L 382.090579 68.773602 
L 385.369917 65.802053 
L 388.649256 62.795718 
L 391.928595 59.754597 
L 395.207934 56.678691 
L 398.487273 53.568 
" style="fill:none;stroke:#2ca02c;stroke-linecap:square;stroke-width:3;"/>
   </g>
   <g id="line2d_18">
    <path clip-path="url(#p710379f9ce)" d="M 73.832727 85.69352 
L 77.112066 95.553118 
L 80.391405 104.868843 
L 83.670744 113.654035 
L 86.950083 121.922032 
L 90.229421 129.686173 
L 93.50876 136.959797 
L 96.788099 143.756243 
L 100.067438 150.08885 
L 103.346777 155.970957 
L 106.626116 161.415904 
L 109.905455 166.437028 
L 113.184793 171.047669 
L 116.464132 175.261167 
L 119.743471 179.090859 
L 123.02281 182.550086 
L 126.302149 185.652185 
L 129.581488 188.410497 
L 132.860826 190.838359 
L 136.140165 192.949112 
L 139.419504 194.756093 
L 142.698843 196.272642 
L 145.978182 197.512099 
L 149.257521 198.487801 
L 152.53686 199.213088 
L 155.816198 199.701299 
L 159.095537 199.965772 
L 162.374876 200.019848 
L 165.654215 199.876864 
L 168.933554 199.550161 
L 172.212893 199.053076 
L 175.492231 198.398949 
L 178.77157 197.601119 
L 182.050909 196.672924 
L 185.330248 195.627705 
L 188.609587 194.479659 
L 191.888926 193.249402 
L 195.168264 191.944239 
L 198.447603 190.567825 
L 201.726942 189.123816 
L 205.006281 187.615868 
L 208.28562 186.047637 
L 211.564959 184.422779 
L 214.844298 182.74495 
L 218.123636 181.017805 
L 221.402975 179.245001 
L 224.682314 177.430192 
L 227.961653 175.577036 
L 231.240992 173.689189 
L 234.520331 171.770305 
L 237.799669 169.82404 
L 241.079008 167.854052 
L 244.358347 165.863994 
L 247.637686 163.857525 
L 250.917025 161.838298 
L 254.196364 159.809971 
L 257.475702 157.776198 
L 260.755041 155.740637 
L 264.03438 153.706942 
L 267.313719 151.67877 
L 270.593058 149.659776 
L 273.872397 147.653617 
L 277.151736 145.663948 
L 280.431074 143.694425 
L 283.710413 141.748704 
L 286.989752 139.816854 
L 290.269091 137.854083 
L 293.54843 135.856527 
L 296.827769 133.824186 
L 300.107107 131.757059 
L 303.386446 129.655146 
L 306.665785 127.518448 
L 309.945124 125.346965 
L 313.224463 123.140696 
L 316.503802 120.899641 
L 319.78314 118.623801 
L 323.062479 116.313176 
L 326.341818 113.967765 
L 329.621157 111.587569 
L 332.900496 109.172587 
L 336.179835 106.72282 
L 339.459174 104.238267 
L 342.738512 101.718929 
L 346.017851 99.164805 
L 349.29719 96.575896 
L 352.576529 93.952201 
L 355.855868 91.293721 
L 359.135207 88.600455 
L 362.414545 85.872404 
L 365.693884 83.109567 
L 368.973223 80.311945 
L 372.252562 77.479538 
L 375.531901 74.612345 
L 378.81124 71.710366 
L 382.090579 68.773602 
L 385.369917 65.802053 
L 388.649256 62.795718 
L 391.928595 59.754597 
L 395.207934 56.678691 
L 398.487273 53.568 
" style="fill:none;stroke:#d62728;stroke-linecap:square;stroke-width:1.5;"/>
   </g>
   <g id="line2d_19">
    <path clip-path="url(#p710379f9ce)" d="M 154.996364 307.584 
L 154.996364 41.472 
" style="fill:none;stroke:#000000;stroke-dasharray:3.7,1.6;stroke-dashoffset:0;"/>
   </g>
   <g id="line2d_20">
    <path clip-path="url(#p710379f9ce)" d="M 252.392727 307.584 
L 252.392727 41.472 
" style="fill:none;stroke:#000000;stroke-dasharray:1,1.65;stroke-dashoffset:0;"/>
   </g>
   <g id="line2d_21">
    <path clip-path="url(#p710379f9ce)" d="M 187.461818 307.584 
L 187.461818 41.472 
" style="fill:none;stroke:#1f77b4;stroke-dasharray:3.7,1.6;stroke-dashoffset:0;"/>
   </g>
   <g id="line2d_22">
    <path clip-path="url(#p710379f9ce)" d="M 284.858182 307.584 
L 284.858182 41.472 
" style="fill:none;stroke:#1f77b4;stroke-dasharray:1,1.65;stroke-dashoffset:0;"/>
   </g>
   <g id="patch_3">
    <path d="M 57.6 307.584 
L 57.6 41.472 
" style="fill:none;stroke:#000000;stroke-linecap:square;stroke-linejoin:miter;stroke-width:0.8;"/>
   </g>
   <g id="patch_4">
    <path d="M 414.72 307.584 
L 414.72 41.472 
" style="fill:none;stroke:#000000;stroke-linecap:square;stroke-linejoin:miter;stroke-width:0.8;"/>
   </g>
   <g id="patch_5">
    <path d="M 57.6 307.584 
L 414.72 307.584 
" style="fill:none;stroke:#000000;stroke-linecap:square;stroke-linejoin:miter;stroke-width:0.8;"/>
   </g>
   <g id="patch_6">
    <path d="M 57.6 41.472 
L 414.72 41.472 
" style="fill:none;stroke:#000000;stroke-linecap:square;stroke-linejoin:miter;stroke-width:0.8;"/>
   </g>
   <g id="legend_1">
    <g id="patch_7">
     <path d="M 111.367031 302.584 
L 360.952969 302.584 
Q 362.952969 302.584 362.952969 300.584 
L 362.952969 242.8715 
Q 362.952969 240.8715 360.952969 240.8715 
L 111.367031 240.8715 
Q 109.367031 240.8715 109.367031 242.8715 
L 109.367031 300.584 
Q 109.367031 302.584 111.367031 302.584 
z
" style="fill:#ffffff;opacity:0.8;stroke:#cccccc;stroke-linejoin:miter;"/>
    </g>
    <g id="line2d_23">
     <path d="M 113.367031 248.969937 
L 133.367031 248.969937 
" style="fill:none;stroke:#1f77b4;stroke-linecap:square;stroke-width:3;"/>
    </g>
    <g id="line2d_24"/>
    <g id="text_17">
     <!-- motion 1 -->
     <g transform="translate(141.367031 252.469937)scale(0.1 -0.1)">
      <defs>
       <path d="M 3328 2828 
Q 3544 3216 3844 3400 
Q 4144 3584 4550 3584 
Q 5097 3584 5394 3201 
Q 5691 2819 5691 2113 
L 5691 0 
L 5113 0 
L 5113 2094 
Q 5113 2597 4934 2840 
Q 4756 3084 4391 3084 
Q 3944 3084 3684 2787 
Q 3425 2491 3425 1978 
L 3425 0 
L 2847 0 
L 2847 2094 
Q 2847 2600 2669 2842 
Q 2491 3084 2119 3084 
Q 1678 3084 1418 2786 
Q 1159 2488 1159 1978 
L 1159 0 
L 581 0 
L 581 3500 
L 1159 3500 
L 1159 2956 
Q 1356 3278 1631 3431 
Q 1906 3584 2284 3584 
Q 2666 3584 2933 3390 
Q 3200 3197 3328 2828 
z
" id="DejaVuSans-6d" transform="scale(0.015625)"/>
       <path d="M 1959 3097 
Q 1497 3097 1228 2736 
Q 959 2375 959 1747 
Q 959 1119 1226 758 
Q 1494 397 1959 397 
Q 2419 397 2687 759 
Q 2956 1122 2956 1747 
Q 2956 2369 2687 2733 
Q 2419 3097 1959 3097 
z
M 1959 3584 
Q 2709 3584 3137 3096 
Q 3566 2609 3566 1747 
Q 3566 888 3137 398 
Q 2709 -91 1959 -91 
Q 1206 -91 779 398 
Q 353 888 353 1747 
Q 353 2609 779 3096 
Q 1206 3584 1959 3584 
z
" id="DejaVuSans-6f" transform="scale(0.015625)"/>
       <path d="M 603 3500 
L 1178 3500 
L 1178 0 
L 603 0 
L 603 3500 
z
M 603 4863 
L 1178 4863 
L 1178 4134 
L 603 4134 
L 603 4863 
z
" id="DejaVuSans-69" transform="scale(0.015625)"/>
       <path d="M 3513 2113 
L 3513 0 
L 2938 0 
L 2938 2094 
Q 2938 2591 2744 2837 
Q 2550 3084 2163 3084 
Q 1697 3084 1428 2787 
Q 1159 2491 1159 1978 
L 1159 0 
L 581 0 
L 581 3500 
L 1159 3500 
L 1159 2956 
Q 1366 3272 1645 3428 
Q 1925 3584 2291 3584 
Q 2894 3584 3203 3211 
Q 3513 2838 3513 2113 
z
" id="DejaVuSans-6e" transform="scale(0.015625)"/>
       <path id="DejaVuSans-20" transform="scale(0.015625)"/>
      </defs>
      <use xlink:href="#DejaVuSans-6d"/>
      <use x="97.412109" xlink:href="#DejaVuSans-6f"/>
      <use x="158.59375" xlink:href="#DejaVuSans-74"/>
      <use x="197.802734" xlink:href="#DejaVuSans-69"/>
      <use x="225.585938" xlink:href="#DejaVuSans-6f"/>
      <use x="286.767578" xlink:href="#DejaVuSans-6e"/>
      <use x="350.146484" xlink:href="#DejaVuSans-20"/>
      <use x="381.933594" xlink:href="#DejaVuSans-31"/>
     </g>
    </g>
    <g id="line2d_25">
     <path d="M 113.367031 263.648062 
L 133.367031 263.648062 
" style="fill:none;stroke:#ff7f0e;stroke-linecap:square;stroke-width:3;"/>
    </g>
    <g id="line2d_26"/>
    <g id="text_18">
     <!-- motion 2 -->
     <g transform="translate(141.367031 267.148062)scale(0.1 -0.1)">
      <use xlink:href="#DejaVuSans-6d"/>
      <use x="97.412109" xlink:href="#DejaVuSans-6f"/>
      <use x="158.59375" xlink:href="#DejaVuSans-74"/>
      <use x="197.802734" xlink:href="#DejaVuSans-69"/>
      <use x="225.585938" xlink:href="#DejaVuSans-6f"/>
      <use x="286.767578" xlink:href="#DejaVuSans-6e"/>
      <use x="350.146484" xlink:href="#DejaVuSans-20"/>
      <use x="381.933594" xlink:href="#DejaVuSans-32"/>
     </g>
    </g>
    <g id="line2d_27">
     <path d="M 113.367031 278.326187 
L 133.367031 278.326187 
" style="fill:none;stroke:#2ca02c;stroke-linecap:square;stroke-width:3;"/>
    </g>
    <g id="line2d_28"/>
    <g id="text_19">
     <!-- motion 3 -->
     <g transform="translate(141.367031 281.826187)scale(0.1 -0.1)">
      <defs>
       <path d="M 2597 2516 
Q 3050 2419 3304 2112 
Q 3559 1806 3559 1356 
Q 3559 666 3084 287 
Q 2609 -91 1734 -91 
Q 1441 -91 1130 -33 
Q 819 25 488 141 
L 488 750 
Q 750 597 1062 519 
Q 1375 441 1716 441 
Q 2309 441 2620 675 
Q 2931 909 2931 1356 
Q 2931 1769 2642 2001 
Q 2353 2234 1838 2234 
L 1294 2234 
L 1294 2753 
L 1863 2753 
Q 2328 2753 2575 2939 
Q 2822 3125 2822 3475 
Q 2822 3834 2567 4026 
Q 2313 4219 1838 4219 
Q 1578 4219 1281 4162 
Q 984 4106 628 3988 
L 628 4550 
Q 988 4650 1302 4700 
Q 1616 4750 1894 4750 
Q 2613 4750 3031 4423 
Q 3450 4097 3450 3541 
Q 3450 3153 3228 2886 
Q 3006 2619 2597 2516 
z
" id="DejaVuSans-33" transform="scale(0.015625)"/>
      </defs>
      <use xlink:href="#DejaVuSans-6d"/>
      <use x="97.412109" xlink:href="#DejaVuSans-6f"/>
      <use x="158.59375" xlink:href="#DejaVuSans-74"/>
      <use x="197.802734" xlink:href="#DejaVuSans-69"/>
      <use x="225.585938" xlink:href="#DejaVuSans-6f"/>
      <use x="286.767578" xlink:href="#DejaVuSans-6e"/>
      <use x="350.146484" xlink:href="#DejaVuSans-20"/>
      <use x="381.933594" xlink:href="#DejaVuSans-33"/>
     </g>
    </g>
    <g id="line2d_29">
     <path d="M 113.367031 293.004312 
L 133.367031 293.004312 
" style="fill:none;stroke:#d62728;stroke-linecap:square;stroke-width:1.5;"/>
    </g>
    <g id="line2d_30"/>
    <g id="text_20">
     <!-- blend2 -->
     <g transform="translate(141.367031 296.504312)scale(0.1 -0.1)">
      <defs>
       <path d="M 3116 1747 
Q 3116 2381 2855 2742 
Q 2594 3103 2138 3103 
Q 1681 3103 1420 2742 
Q 1159 2381 1159 1747 
Q 1159 1113 1420 752 
Q 1681 391 2138 391 
Q 2594 391 2855 752 
Q 3116 1113 3116 1747 
z
M 1159 2969 
Q 1341 3281 1617 3432 
Q 1894 3584 2278 3584 
Q 2916 3584 3314 3078 
Q 3713 2572 3713 1747 
Q 3713 922 3314 415 
Q 2916 -91 2278 -91 
Q 1894 -91 1617 61 
Q 1341 213 1159 525 
L 1159 0 
L 581 0 
L 581 4863 
L 1159 4863 
L 1159 2969 
z
" id="DejaVuSans-62" transform="scale(0.015625)"/>
       <path d="M 603 4863 
L 1178 4863 
L 1178 0 
L 603 0 
L 603 4863 
z
" id="DejaVuSans-6c" transform="scale(0.015625)"/>
       <path d="M 3597 1894 
L 3597 1613 
L 953 1613 
Q 991 1019 1311 708 
Q 1631 397 2203 397 
Q 2534 397 2845 478 
Q 3156 559 3463 722 
L 3463 178 
Q 3153 47 2828 -22 
Q 2503 -91 2169 -91 
Q 1331 -91 842 396 
Q 353 884 353 1716 
Q 353 2575 817 3079 
Q 1281 3584 2069 3584 
Q 2775 3584 3186 3129 
Q 3597 2675 3597 1894 
z
M 3022 2063 
Q 3016 2534 2758 2815 
Q 2500 3097 2075 3097 
Q 1594 3097 1305 2825 
Q 1016 2553 972 2059 
L 3022 2063 
z
" id="DejaVuSans-65" transform="scale(0.015625)"/>
       <path d="M 2906 2969 
L 2906 4863 
L 3481 4863 
L 3481 0 
L 2906 0 
L 2906 525 
Q 2725 213 2448 61 
Q 2172 -91 1784 -91 
Q 1150 -91 751 415 
Q 353 922 353 1747 
Q 353 2572 751 3078 
Q 1150 3584 1784 3584 
Q 2172 3584 2448 3432 
Q 2725 3281 2906 2969 
z
M 947 1747 
Q 947 1113 1208 752 
Q 1469 391 1925 391 
Q 2381 391 2643 752 
Q 2906 1113 2906 1747 
Q 2906 2381 2643 2742 
Q 2381 3103 1925 3103 
Q 1469 3103 1208 2742 
Q 947 2381 947 1747 
z
" id="DejaVuSans-64" transform="scale(0.015625)"/>
      </defs>
      <use xlink:href="#DejaVuSans-62"/>
      <use x="63.476562" xlink:href="#DejaVuSans-6c"/>
      <use x="91.259766" xlink:href="#DejaVuSans-65"/>
      <use x="152.783203" xlink:href="#DejaVuSans-6e"/>
      <use x="216.162109" xlink:href="#DejaVuSans-64"/>
      <use x="279.638672" xlink:href="#DejaVuSans-32"/>
     </g>
    </g>
    <g id="line2d_31">
     <path d="M 205.921719 248.969937 
L 225.921719 248.969937 
" style="fill:none;stroke:#000000;stroke-dasharray:3.7,1.6;stroke-dashoffset:0;"/>
    </g>
    <g id="line2d_32"/>
    <g id="text_21">
     <!-- start blend1 1&lt;-&gt;2 -->
     <g transform="translate(233.921719 252.469937)scale(0.1 -0.1)">
      <defs>
       <path d="M 2834 3397 
L 2834 2853 
Q 2591 2978 2328 3040 
Q 2066 3103 1784 3103 
Q 1356 3103 1142 2972 
Q 928 2841 928 2578 
Q 928 2378 1081 2264 
Q 1234 2150 1697 2047 
L 1894 2003 
Q 2506 1872 2764 1633 
Q 3022 1394 3022 966 
Q 3022 478 2636 193 
Q 2250 -91 1575 -91 
Q 1294 -91 989 -36 
Q 684 19 347 128 
L 347 722 
Q 666 556 975 473 
Q 1284 391 1588 391 
Q 1994 391 2212 530 
Q 2431 669 2431 922 
Q 2431 1156 2273 1281 
Q 2116 1406 1581 1522 
L 1381 1569 
Q 847 1681 609 1914 
Q 372 2147 372 2553 
Q 372 3047 722 3315 
Q 1072 3584 1716 3584 
Q 2034 3584 2315 3537 
Q 2597 3491 2834 3397 
z
" id="DejaVuSans-73" transform="scale(0.015625)"/>
       <path d="M 2194 1759 
Q 1497 1759 1228 1600 
Q 959 1441 959 1056 
Q 959 750 1161 570 
Q 1363 391 1709 391 
Q 2188 391 2477 730 
Q 2766 1069 2766 1631 
L 2766 1759 
L 2194 1759 
z
M 3341 1997 
L 3341 0 
L 2766 0 
L 2766 531 
Q 2569 213 2275 61 
Q 1981 -91 1556 -91 
Q 1019 -91 701 211 
Q 384 513 384 1019 
Q 384 1609 779 1909 
Q 1175 2209 1959 2209 
L 2766 2209 
L 2766 2266 
Q 2766 2663 2505 2880 
Q 2244 3097 1772 3097 
Q 1472 3097 1187 3025 
Q 903 2953 641 2809 
L 641 3341 
Q 956 3463 1253 3523 
Q 1550 3584 1831 3584 
Q 2591 3584 2966 3190 
Q 3341 2797 3341 1997 
z
" id="DejaVuSans-61" transform="scale(0.015625)"/>
       <path d="M 2631 2963 
Q 2534 3019 2420 3045 
Q 2306 3072 2169 3072 
Q 1681 3072 1420 2755 
Q 1159 2438 1159 1844 
L 1159 0 
L 581 0 
L 581 3500 
L 1159 3500 
L 1159 2956 
Q 1341 3275 1631 3429 
Q 1922 3584 2338 3584 
Q 2397 3584 2469 3576 
Q 2541 3569 2628 3553 
L 2631 2963 
z
" id="DejaVuSans-72" transform="scale(0.015625)"/>
       <path d="M 4684 3150 
L 1459 2003 
L 4684 863 
L 4684 294 
L 678 1747 
L 678 2266 
L 4684 3719 
L 4684 3150 
z
" id="DejaVuSans-3c" transform="scale(0.015625)"/>
       <path d="M 313 2009 
L 1997 2009 
L 1997 1497 
L 313 1497 
L 313 2009 
z
" id="DejaVuSans-2d" transform="scale(0.015625)"/>
       <path d="M 678 3150 
L 678 3719 
L 4684 2266 
L 4684 1747 
L 678 294 
L 678 863 
L 3897 2003 
L 678 3150 
z
" id="DejaVuSans-3e" transform="scale(0.015625)"/>
      </defs>
      <use xlink:href="#DejaVuSans-73"/>
      <use x="52.099609" xlink:href="#DejaVuSans-74"/>
      <use x="91.308594" xlink:href="#DejaVuSans-61"/>
      <use x="152.587891" xlink:href="#DejaVuSans-72"/>
      <use x="193.701172" xlink:href="#DejaVuSans-74"/>
      <use x="232.910156" xlink:href="#DejaVuSans-20"/>
      <use x="264.697266" xlink:href="#DejaVuSans-62"/>
      <use x="328.173828" xlink:href="#DejaVuSans-6c"/>
      <use x="355.957031" xlink:href="#DejaVuSans-65"/>
      <use x="417.480469" xlink:href="#DejaVuSans-6e"/>
      <use x="480.859375" xlink:href="#DejaVuSans-64"/>
      <use x="544.335938" xlink:href="#DejaVuSans-31"/>
      <use x="607.958984" xlink:href="#DejaVuSans-20"/>
      <use x="639.746094" xlink:href="#DejaVuSans-31"/>
      <use x="703.369141" xlink:href="#DejaVuSans-3c"/>
      <use x="787.158203" xlink:href="#DejaVuSans-2d"/>
      <use x="823.242188" xlink:href="#DejaVuSans-3e"/>
      <use x="907.03125" xlink:href="#DejaVuSans-32"/>
     </g>
    </g>
    <g id="line2d_33">
     <path d="M 205.921719 263.648062 
L 225.921719 263.648062 
" style="fill:none;stroke:#000000;stroke-dasharray:1,1.65;stroke-dashoffset:0;"/>
    </g>
    <g id="line2d_34"/>
    <g id="text_22">
     <!-- end blend1 -->
     <g transform="translate(233.921719 267.148062)scale(0.1 -0.1)">
      <use xlink:href="#DejaVuSans-65"/>
      <use x="61.523438" xlink:href="#DejaVuSans-6e"/>
      <use x="124.902344" xlink:href="#DejaVuSans-64"/>
      <use x="188.378906" xlink:href="#DejaVuSans-20"/>
      <use x="220.166016" xlink:href="#DejaVuSans-62"/>
      <use x="283.642578" xlink:href="#DejaVuSans-6c"/>
      <use x="311.425781" xlink:href="#DejaVuSans-65"/>
      <use x="372.949219" xlink:href="#DejaVuSans-6e"/>
      <use x="436.328125" xlink:href="#DejaVuSans-64"/>
      <use x="499.804688" xlink:href="#DejaVuSans-31"/>
     </g>
    </g>
    <g id="line2d_35">
     <path d="M 205.921719 278.326187 
L 225.921719 278.326187 
" style="fill:none;stroke:#1f77b4;stroke-dasharray:3.7,1.6;stroke-dashoffset:0;"/>
    </g>
    <g id="line2d_36"/>
    <g id="text_23">
     <!-- start blend2 blend1&lt;-&gt;3 -->
     <g transform="translate(233.921719 281.826187)scale(0.1 -0.1)">
      <use xlink:href="#DejaVuSans-73"/>
      <use x="52.099609" xlink:href="#DejaVuSans-74"/>
      <use x="91.308594" xlink:href="#DejaVuSans-61"/>
      <use x="152.587891" xlink:href="#DejaVuSans-72"/>
      <use x="193.701172" xlink:href="#DejaVuSans-74"/>
      <use x="232.910156" xlink:href="#DejaVuSans-20"/>
      <use x="264.697266" xlink:href="#DejaVuSans-62"/>
      <use x="328.173828" xlink:href="#DejaVuSans-6c"/>
      <use x="355.957031" xlink:href="#DejaVuSans-65"/>
      <use x="417.480469" xlink:href="#DejaVuSans-6e"/>
      <use x="480.859375" xlink:href="#DejaVuSans-64"/>
      <use x="544.335938" xlink:href="#DejaVuSans-32"/>
      <use x="607.958984" xlink:href="#DejaVuSans-20"/>
      <use x="639.746094" xlink:href="#DejaVuSans-62"/>
      <use x="703.222656" xlink:href="#DejaVuSans-6c"/>
      <use x="731.005859" xlink:href="#DejaVuSans-65"/>
      <use x="792.529297" xlink:href="#DejaVuSans-6e"/>
      <use x="855.908203" xlink:href="#DejaVuSans-64"/>
      <use x="919.384766" xlink:href="#DejaVuSans-31"/>
      <use x="983.007812" xlink:href="#DejaVuSans-3c"/>
      <use x="1066.796875" xlink:href="#DejaVuSans-2d"/>
      <use x="1102.880859" xlink:href="#DejaVuSans-3e"/>
      <use x="1186.669922" xlink:href="#DejaVuSans-33"/>
     </g>
    </g>
    <g id="line2d_37">
     <path d="M 205.921719 293.004312 
L 225.921719 293.004312 
" style="fill:none;stroke:#1f77b4;stroke-dasharray:1,1.65;stroke-dashoffset:0;"/>
    </g>
    <g id="line2d_38"/>
    <g id="text_24">
     <!-- end blend2 -->
     <g transform="translate(233.921719 296.504312)scale(0.1 -0.1)">
      <use xlink:href="#DejaVuSans-65"/>
      <use x="61.523438" xlink:href="#DejaVuSans-6e"/>
      <use x="124.902344" xlink:href="#DejaVuSans-64"/>
      <use x="188.378906" xlink:href="#DejaVuSans-20"/>
      <use x="220.166016" xlink:href="#DejaVuSans-62"/>
      <use x="283.642578" xlink:href="#DejaVuSans-6c"/>
      <use x="311.425781" xlink:href="#DejaVuSans-65"/>
      <use x="372.949219" xlink:href="#DejaVuSans-6e"/>
      <use x="436.328125" xlink:href="#DejaVuSans-64"/>
      <use x="499.804688" xlink:href="#DejaVuSans-32"/>
     </g>
    </g>
   </g>
  </g>
 </g>
 <defs>
  <clipPath id="p710379f9ce">
   <rect height="266.112" width="357.12" x="57.6" y="41.472"/>
  </clipPath>
 </defs>
</svg>
