<?xml version="1.0" encoding="utf-8" standalone="no"?>
<!DOCTYPE svg PUBLIC "-//W3C//DTD SVG 1.1//EN"
  "http://www.w3.org/Graphics/SVG/1.1/DTD/svg11.dtd">
<svg height="345.6pt" version="1.1" viewBox="0 0 460.8 345.6" width="460.8pt" xmlns="http://www.w3.org/2000/svg" xmlns:xlink="http://www.w3.org/1999/xlink">
 <metadata>
  <rdf:RDF xmlns:cc="http://creativecommons.org/ns#" xmlns:dc="http://purl.org/dc/elements/1.1/" xmlns:rdf="http://www.w3.org/1999/02/22-rdf-syntax-ns#">
   <cc:Work>
    <dc:type rdf:resource="http://purl.org/dc/dcmitype/StillImage"/>
    <dc:date>2022-03-22T06:18:38.503825</dc:date>
    <dc:format>image/svg+xml</dc:format>
    <dc:creator>
     <cc:Agent>
      <dc:title>Matplotlib v3.4.3, https://matplotlib.org/</dc:title>
     </cc:Agent>
    </dc:creator>
   </cc:Work>
  </rdf:RDF>
 </metadata>
 <defs>
  <style type="text/css">*{stroke-linecap:butt;stroke-linejoin:round;}</style>
 </defs>
 <g id="figure_1">
  <g id="patch_1">
   <path d="M 0 345.6 
L 460.8 345.6 
L 460.8 0 
L 0 0 
z
" style="fill:#ffffff;"/>
  </g>
  <g id="axes_1">
   <g id="patch_2">
    <path d="M 57.6 307.584 
L 414.72 307.584 
L 414.72 41.472 
L 57.6 41.472 
z
" style="fill:#ffffff;"/>
   </g>
   <g id="matplotlib.axis_1">
    <g id="xtick_1">
     <g id="line2d_1">
      <defs>
       <path d="M 0 0 
L 0 3.5 
" id="m005be88185" style="stroke:#000000;stroke-width:0.8;"/>
      </defs>
      <g>
       <use style="stroke:#000000;stroke-width:0.8;" x="73.832727" xlink:href="#m005be88185" y="307.584"/>
      </g>
     </g>
     <g id="text_1">
      <!-- 0 -->
      <g transform="translate(70.651477 322.182437)scale(0.1 -0.1)">
       <defs>
        <path d="M 2034 4250 
Q 1547 4250 1301 3770 
Q 1056 3291 1056 2328 
Q 1056 1369 1301 889 
Q 1547 409 2034 409 
Q 2525 409 2770 889 
Q 3016 1369 3016 2328 
Q 3016 3291 2770 3770 
Q 2525 4250 2034 4250 
z
M 2034 4750 
Q 2819 4750 3233 4129 
Q 3647 3509 3647 2328 
Q 3647 1150 3233 529 
Q 2819 -91 2034 -91 
Q 1250 -91 836 529 
Q 422 1150 422 2328 
Q 422 3509 836 4129 
Q 1250 4750 2034 4750 
z
" id="DejaVuSans-30" transform="scale(0.015625)"/>
       </defs>
       <use xlink:href="#DejaVuSans-30"/>
      </g>
     </g>
    </g>
    <g id="xtick_2">
     <g id="line2d_2">
      <g>
       <use style="stroke:#000000;stroke-width:0.8;" x="138.763636" xlink:href="#m005be88185" y="307.584"/>
      </g>
     </g>
     <g id="text_2">
      <!-- 2 -->
      <g transform="translate(135.582386 322.182437)scale(0.1 -0.1)">
       <defs>
        <path d="M 1228 531 
L 3431 531 
L 3431 0 
L 469 0 
L 469 531 
Q 828 903 1448 1529 
Q 2069 2156 2228 2338 
Q 2531 2678 2651 2914 
Q 2772 3150 2772 3378 
Q 2772 3750 2511 3984 
Q 2250 4219 1831 4219 
Q 1534 4219 1204 4116 
Q 875 4013 500 3803 
L 500 4441 
Q 881 4594 1212 4672 
Q 1544 4750 1819 4750 
Q 2544 4750 2975 4387 
Q 3406 4025 3406 3419 
Q 3406 3131 3298 2873 
Q 3191 2616 2906 2266 
Q 2828 2175 2409 1742 
Q 1991 1309 1228 531 
z
" id="DejaVuSans-32" transform="scale(0.015625)"/>
       </defs>
       <use xlink:href="#DejaVuSans-32"/>
      </g>
     </g>
    </g>
    <g id="xtick_3">
     <g id="line2d_3">
      <g>
       <use style="stroke:#000000;stroke-width:0.8;" x="203.694545" xlink:href="#m005be88185" y="307.584"/>
      </g>
     </g>
     <g id="text_3">
      <!-- 4 -->
      <g transform="translate(200.513295 322.182437)scale(0.1 -0.1)">
       <defs>
        <path d="M 2419 4116 
L 825 1625 
L 2419 1625 
L 2419 4116 
z
M 2253 4666 
L 3047 4666 
L 3047 1625 
L 3713 1625 
L 3713 1100 
L 3047 1100 
L 3047 0 
L 2419 0 
L 2419 1100 
L 313 1100 
L 313 1709 
L 2253 4666 
z
" id="DejaVuSans-34" transform="scale(0.015625)"/>
       </defs>
       <use xlink:href="#DejaVuSans-34"/>
      </g>
     </g>
    </g>
    <g id="xtick_4">
     <g id="line2d_4">
      <g>
       <use style="stroke:#000000;stroke-width:0.8;" x="268.625455" xlink:href="#m005be88185" y="307.584"/>
      </g>
     </g>
     <g id="text_4">
      <!-- 6 -->
      <g transform="translate(265.444205 322.182437)scale(0.1 -0.1)">
       <defs>
        <path d="M 2113 2584 
Q 1688 2584 1439 2293 
Q 1191 2003 1191 1497 
Q 1191 994 1439 701 
Q 1688 409 2113 409 
Q 2538 409 2786 701 
Q 3034 994 3034 1497 
Q 3034 2003 2786 2293 
Q 2538 2584 2113 2584 
z
M 3366 4563 
L 3366 3988 
Q 3128 4100 2886 4159 
Q 2644 4219 2406 4219 
Q 1781 4219 1451 3797 
Q 1122 3375 1075 2522 
Q 1259 2794 1537 2939 
Q 1816 3084 2150 3084 
Q 2853 3084 3261 2657 
Q 3669 2231 3669 1497 
Q 3669 778 3244 343 
Q 2819 -91 2113 -91 
Q 1303 -91 875 529 
Q 447 1150 447 2328 
Q 447 3434 972 4092 
Q 1497 4750 2381 4750 
Q 2619 4750 2861 4703 
Q 3103 4656 3366 4563 
z
" id="DejaVuSans-36" transform="scale(0.015625)"/>
       </defs>
       <use xlink:href="#DejaVuSans-36"/>
      </g>
     </g>
    </g>
    <g id="xtick_5">
     <g id="line2d_5">
      <g>
       <use style="stroke:#000000;stroke-width:0.8;" x="333.556364" xlink:href="#m005be88185" y="307.584"/>
      </g>
     </g>
     <g id="text_5">
      <!-- 8 -->
      <g transform="translate(330.375114 322.182437)scale(0.1 -0.1)">
       <defs>
        <path d="M 2034 2216 
Q 1584 2216 1326 1975 
Q 1069 1734 1069 1313 
Q 1069 891 1326 650 
Q 1584 409 2034 409 
Q 2484 409 2743 651 
Q 3003 894 3003 1313 
Q 3003 1734 2745 1975 
Q 2488 2216 2034 2216 
z
M 1403 2484 
Q 997 2584 770 2862 
Q 544 3141 544 3541 
Q 544 4100 942 4425 
Q 1341 4750 2034 4750 
Q 2731 4750 3128 4425 
Q 3525 4100 3525 3541 
Q 3525 3141 3298 2862 
Q 3072 2584 2669 2484 
Q 3125 2378 3379 2068 
Q 3634 1759 3634 1313 
Q 3634 634 3220 271 
Q 2806 -91 2034 -91 
Q 1263 -91 848 271 
Q 434 634 434 1313 
Q 434 1759 690 2068 
Q 947 2378 1403 2484 
z
M 1172 3481 
Q 1172 3119 1398 2916 
Q 1625 2713 2034 2713 
Q 2441 2713 2670 2916 
Q 2900 3119 2900 3481 
Q 2900 3844 2670 4047 
Q 2441 4250 2034 4250 
Q 1625 4250 1398 4047 
Q 1172 3844 1172 3481 
z
" id="DejaVuSans-38" transform="scale(0.015625)"/>
       </defs>
       <use xlink:href="#DejaVuSans-38"/>
      </g>
     </g>
    </g>
    <g id="xtick_6">
     <g id="line2d_6">
      <g>
       <use style="stroke:#000000;stroke-width:0.8;" x="398.487273" xlink:href="#m005be88185" y="307.584"/>
      </g>
     </g>
     <g id="text_6">
      <!-- 10 -->
      <g transform="translate(392.124773 322.182437)scale(0.1 -0.1)">
       <defs>
        <path d="M 794 531 
L 1825 531 
L 1825 4091 
L 703 3866 
L 703 4441 
L 1819 4666 
L 2450 4666 
L 2450 531 
L 3481 531 
L 3481 0 
L 794 0 
L 794 531 
z
" id="DejaVuSans-31" transform="scale(0.015625)"/>
       </defs>
       <use xlink:href="#DejaVuSans-31"/>
       <use x="63.623047" xlink:href="#DejaVuSans-30"/>
      </g>
     </g>
    </g>
    <g id="text_7">
     <!-- t -->
     <g transform="translate(234.199844 335.860562)scale(0.1 -0.1)">
      <defs>
       <path d="M 1172 4494 
L 1172 3500 
L 2356 3500 
L 2356 3053 
L 1172 3053 
L 1172 1153 
Q 1172 725 1289 603 
Q 1406 481 1766 481 
L 2356 481 
L 2356 0 
L 1766 0 
Q 1100 0 847 248 
Q 594 497 594 1153 
L 594 3053 
L 172 3053 
L 172 3500 
L 594 3500 
L 594 4494 
L 1172 4494 
z
" id="DejaVuSans-74" transform="scale(0.015625)"/>
      </defs>
      <use xlink:href="#DejaVuSans-74"/>
     </g>
    </g>
   </g>
   <g id="matplotlib.axis_2">
    <g id="ytick_1">
     <g id="line2d_7">
      <defs>
       <path d="M 0 0 
L -3.5 0 
" id="m6e0a243bdb" style="stroke:#000000;stroke-width:0.8;"/>
      </defs>
      <g>
       <use style="stroke:#000000;stroke-width:0.8;" x="57.6" xlink:href="#m6e0a243bdb" y="272.845241"/>
      </g>
     </g>
     <g id="text_8">
      <!-- −60 -->
      <g transform="translate(29.495313 276.64446)scale(0.1 -0.1)">
       <defs>
        <path d="M 678 2272 
L 4684 2272 
L 4684 1741 
L 678 1741 
L 678 2272 
z
" id="DejaVuSans-2212" transform="scale(0.015625)"/>
       </defs>
       <use xlink:href="#DejaVuSans-2212"/>
       <use x="83.789062" xlink:href="#DejaVuSans-36"/>
       <use x="147.412109" xlink:href="#DejaVuSans-30"/>
      </g>
     </g>
    </g>
    <g id="ytick_2">
     <g id="line2d_8">
      <g>
       <use style="stroke:#000000;stroke-width:0.8;" x="57.6" xlink:href="#m6e0a243bdb" y="225.176276"/>
      </g>
     </g>
     <g id="text_9">
      <!-- −40 -->
      <g transform="translate(29.495313 228.975495)scale(0.1 -0.1)">
       <use xlink:href="#DejaVuSans-2212"/>
       <use x="83.789062" xlink:href="#DejaVuSans-34"/>
       <use x="147.412109" xlink:href="#DejaVuSans-30"/>
      </g>
     </g>
    </g>
    <g id="ytick_3">
     <g id="line2d_9">
      <g>
       <use style="stroke:#000000;stroke-width:0.8;" x="57.6" xlink:href="#m6e0a243bdb" y="177.50731"/>
      </g>
     </g>
     <g id="text_10">
      <!-- −20 -->
      <g transform="translate(29.495313 181.306529)scale(0.1 -0.1)">
       <use xlink:href="#DejaVuSans-2212"/>
       <use x="83.789062" xlink:href="#DejaVuSans-32"/>
       <use x="147.412109" xlink:href="#DejaVuSans-30"/>
      </g>
     </g>
    </g>
    <g id="ytick_4">
     <g id="line2d_10">
      <g>
       <use style="stroke:#000000;stroke-width:0.8;" x="57.6" xlink:href="#m6e0a243bdb" y="129.838345"/>
      </g>
     </g>
     <g id="text_11">
      <!-- 0 -->
      <g transform="translate(44.2375 133.637564)scale(0.1 -0.1)">
       <use xlink:href="#DejaVuSans-30"/>
      </g>
     </g>
    </g>
    <g id="ytick_5">
     <g id="line2d_11">
      <g>
       <use style="stroke:#000000;stroke-width:0.8;" x="57.6" xlink:href="#m6e0a243bdb" y="82.169379"/>
      </g>
     </g>
     <g id="text_12">
      <!-- 20 -->
      <g transform="translate(37.875 85.968598)scale(0.1 -0.1)">
       <use xlink:href="#DejaVuSans-32"/>
       <use x="63.623047" xlink:href="#DejaVuSans-30"/>
      </g>
     </g>
    </g>
    <g id="text_13">
     <!-- x -->
     <g transform="translate(23.415625 177.487375)rotate(-90)scale(0.1 -0.1)">
      <defs>
       <path d="M 3513 3500 
L 2247 1797 
L 3578 0 
L 2900 0 
L 1881 1375 
L 863 0 
L 184 0 
L 1544 1831 
L 300 3500 
L 978 3500 
L 1906 2253 
L 2834 3500 
L 3513 3500 
z
" id="DejaVuSans-78" transform="scale(0.015625)"/>
      </defs>
      <use xlink:href="#DejaVuSans-78"/>
     </g>
    </g>
   </g>
   <g id="line2d_12">
    <path clip-path="url(#p04e9bf3116)" d="M 73.832727 128.646621 
L 77.112066 128.425323 
L 80.391405 128.242935 
L 83.670744 128.099456 
L 86.950083 127.994887 
L 90.229421 127.929227 
L 93.50876 127.902477 
L 96.788099 127.914636 
L 100.067438 127.965705 
L 103.346777 128.055683 
L 106.626116 128.184571 
L 109.905455 128.352368 
L 113.184793 128.559074 
L 116.464132 128.80469 
L 119.743471 129.089216 
L 123.02281 129.412651 
L 126.302149 129.774995 
L 129.581488 130.176249 
L 132.860826 130.616413 
L 136.140165 131.095486 
L 139.419504 131.613468 
L 142.698843 132.17036 
L 145.978182 132.766161 
L 149.257521 133.400872 
L 152.53686 134.074492 
L 155.816198 134.787022 
L 159.095537 135.538461 
L 162.374876 136.328809 
L 165.654215 137.158067 
L 168.933554 138.026235 
L 172.212893 138.933312 
L 175.492231 139.879299 
L 178.77157 140.864195 
L 182.050909 141.888 
L 185.330248 142.950715 
L 188.609587 144.052339 
L 191.888926 145.192873 
L 195.168264 146.372317 
L 198.447603 147.590669 
L 201.726942 148.847932 
L 205.006281 150.144103 
L 208.28562 151.479185 
L 211.564959 152.853175 
L 214.844298 154.266075 
L 218.123636 155.717885 
L 221.402975 157.208604 
L 224.682314 158.738233 
L 227.961653 160.306771 
L 231.240992 161.914218 
L 234.520331 163.560575 
L 237.799669 165.245842 
L 241.079008 166.970018 
L 244.358347 168.733103 
L 247.637686 170.535098 
L 250.917025 172.376002 
L 254.196364 174.255816 
L 257.475702 176.174539 
L 260.755041 178.132172 
L 264.03438 180.128714 
L 267.313719 182.164166 
L 270.593058 184.238527 
L 273.872397 186.351798 
L 277.151736 188.503978 
L 280.431074 190.695068 
L 283.710413 192.925067 
L 286.989752 195.193975 
L 290.269091 197.501793 
L 293.54843 199.848521 
L 296.827769 202.234157 
L 300.107107 204.658704 
L 303.386446 207.12216 
L 306.665785 209.624525 
L 309.945124 212.1658 
L 313.224463 214.745984 
L 316.503802 217.365078 
L 319.78314 220.023081 
L 323.062479 222.719994 
L 326.341818 225.455816 
L 329.621157 228.230548 
L 332.900496 231.044189 
L 336.179835 233.896739 
L 339.459174 236.788199 
L 342.738512 239.718569 
L 346.017851 242.687848 
L 349.29719 245.696036 
L 352.576529 248.743134 
L 355.855868 251.829142 
L 359.135207 254.954059 
L 362.414545 258.117885 
L 365.693884 261.320621 
L 368.973223 264.562266 
L 372.252562 267.842821 
L 375.531901 271.162285 
L 378.81124 274.520659 
L 382.090579 277.917942 
L 385.369917 281.354135 
L 388.649256 284.829237 
L 391.928595 288.343248 
L 395.207934 291.896169 
L 398.487273 295.488 
" style="fill:none;stroke:#1f77b4;stroke-linecap:square;stroke-width:3;"/>
   </g>
   <g id="line2d_13">
    <path clip-path="url(#p04e9bf3116)" d="M 106.626116 117.848878 
L 109.905455 117.126621 
L 113.184793 116.404364 
L 116.464132 115.682107 
L 119.743471 114.95985 
L 123.02281 114.237592 
L 126.302149 113.515335 
L 129.581488 112.793078 
L 132.860826 112.070821 
L 136.140165 111.348564 
L 139.419504 110.626307 
L 142.698843 109.90405 
L 145.978182 109.181793 
L 149.257521 108.459536 
L 152.53686 107.737279 
L 155.816198 107.015022 
L 159.095537 106.292765 
L 162.374876 105.570508 
L 165.654215 104.848251 
L 168.933554 104.125994 
L 172.212893 103.403737 
L 175.492231 102.68148 
L 178.77157 101.959223 
L 182.050909 101.236966 
L 185.330248 100.514708 
L 188.609587 99.792451 
L 191.888926 99.070194 
L 195.168264 98.347937 
L 198.447603 97.62568 
L 201.726942 96.903423 
L 205.006281 96.181166 
L 208.28562 95.458909 
L 211.564959 94.736652 
L 214.844298 94.014395 
L 218.123636 93.292138 
L 221.402975 92.569881 
L 224.682314 91.847624 
L 227.961653 91.125367 
L 231.240992 90.40311 
L 234.520331 89.680853 
L 237.799669 88.958596 
L 241.079008 88.236339 
L 244.358347 87.514082 
L 247.637686 86.791824 
L 250.917025 86.069567 
L 254.196364 85.34731 
L 257.475702 84.625053 
L 260.755041 83.902796 
L 264.03438 83.180539 
L 267.313719 82.458282 
L 270.593058 81.736025 
L 273.872397 81.013768 
L 277.151736 80.291511 
L 280.431074 79.569254 
L 283.710413 78.846997 
L 286.989752 78.12474 
L 290.269091 77.402483 
L 293.54843 76.680226 
L 296.827769 75.957969 
L 300.107107 75.235712 
L 303.386446 74.513455 
L 306.665785 73.791197 
L 309.945124 73.06894 
L 313.224463 72.346683 
L 316.503802 71.624426 
L 319.78314 70.902169 
L 323.062479 70.179912 
L 326.341818 69.457655 
L 329.621157 68.735398 
L 332.900496 68.013141 
L 336.179835 67.290884 
L 339.459174 66.568627 
L 342.738512 65.84637 
L 346.017851 65.124113 
L 349.29719 64.401856 
L 352.576529 63.679599 
L 355.855868 62.957342 
L 359.135207 62.235085 
L 362.414545 61.512828 
L 365.693884 60.790571 
L 368.973223 60.068313 
L 372.252562 59.346056 
L 375.531901 58.623799 
L 378.81124 57.901542 
L 382.090579 57.179285 
L 385.369917 56.457028 
L 388.649256 55.734771 
L 391.928595 55.012514 
L 395.207934 54.290257 
L 398.487273 53.568 
" style="fill:none;stroke:#ff7f0e;stroke-linecap:square;stroke-width:3;"/>
   </g>
   <g id="line2d_14">
    <path clip-path="url(#p04e9bf3116)" d="M 73.832727 128.646621 
L 77.112066 128.425323 
L 80.391405 128.242935 
L 83.670744 128.099456 
L 86.950083 127.994887 
L 90.229421 127.929227 
L 93.50876 127.902477 
L 96.788099 127.914636 
L 100.067438 127.965705 
L 103.346777 128.055683 
L 106.626116 128.184571 
L 109.905455 128.352368 
L 113.184793 128.559074 
L 116.464132 128.80469 
L 119.743471 129.089216 
L 123.02281 129.412651 
L 126.302149 129.774995 
L 129.581488 130.176249 
L 132.860826 130.616413 
L 136.140165 131.095486 
L 139.419504 131.613468 
L 142.698843 132.17036 
L 145.978182 132.766161 
L 149.257521 133.400872 
L 152.53686 134.074492 
L 155.816198 134.763745 
L 159.095537 134.973339 
L 162.374876 134.552219 
L 165.654215 133.564868 
L 168.933554 132.075764 
L 172.212893 130.14939 
L 175.492231 127.850226 
L 178.77157 125.242751 
L 182.050909 122.391448 
L 185.330248 119.360797 
L 188.609587 116.215278 
L 191.888926 113.019371 
L 195.168264 109.837559 
L 198.447603 106.73432 
L 201.726942 103.774137 
L 205.006281 101.021489 
L 208.28562 98.540858 
L 211.564959 96.396723 
L 214.844298 94.653566 
L 218.123636 93.375867 
L 221.402975 92.569881 
L 224.682314 91.847624 
L 227.961653 91.125367 
L 231.240992 90.40311 
L 234.520331 89.680853 
L 237.799669 88.958596 
L 241.079008 88.236339 
L 244.358347 87.514082 
L 247.637686 86.791824 
L 250.917025 86.069567 
L 254.196364 85.34731 
L 257.475702 84.625053 
L 260.755041 83.902796 
L 264.03438 83.180539 
L 267.313719 82.458282 
L 270.593058 81.736025 
L 273.872397 81.013768 
L 277.151736 80.291511 
L 280.431074 79.569254 
L 283.710413 78.846997 
L 286.989752 78.12474 
L 290.269091 77.402483 
L 293.54843 76.680226 
L 296.827769 75.957969 
L 300.107107 75.235712 
L 303.386446 74.513455 
L 306.665785 73.791197 
L 309.945124 73.06894 
L 313.224463 72.346683 
L 316.503802 71.624426 
L 319.78314 70.902169 
L 323.062479 70.179912 
L 326.341818 69.457655 
L 329.621157 68.735398 
L 332.900496 68.013141 
L 336.179835 67.290884 
L 339.459174 66.568627 
L 342.738512 65.84637 
L 346.017851 65.124113 
L 349.29719 64.401856 
L 352.576529 63.679599 
L 355.855868 62.957342 
L 359.135207 62.235085 
L 362.414545 61.512828 
L 365.693884 60.790571 
L 368.973223 60.068313 
L 372.252562 59.346056 
L 375.531901 58.623799 
L 378.81124 57.901542 
L 382.090579 57.179285 
L 385.369917 56.457028 
L 388.649256 55.734771 
L 391.928595 55.012514 
L 395.207934 54.290257 
L 398.487273 53.568 
" style="fill:none;stroke:#2ca02c;stroke-linecap:square;stroke-width:1.5;"/>
   </g>
   <g id="line2d_15">
    <path clip-path="url(#p04e9bf3116)" d="M 154.996364 307.584 
L 154.996364 41.472 
" style="fill:none;stroke:#000000;stroke-dasharray:3.7,1.6;stroke-dashoffset:0;"/>
   </g>
   <g id="line2d_16">
    <path clip-path="url(#p04e9bf3116)" d="M 219.927273 307.584 
L 219.927273 41.472 
" style="fill:none;stroke:#1f77b4;stroke-dasharray:3.7,1.6;stroke-dashoffset:0;"/>
   </g>
   <g id="patch_3">
    <path d="M 57.6 307.584 
L 57.6 41.472 
" style="fill:none;stroke:#000000;stroke-linecap:square;stroke-linejoin:miter;stroke-width:0.8;"/>
   </g>
   <g id="patch_4">
    <path d="M 414.72 307.584 
L 414.72 41.472 
" style="fill:none;stroke:#000000;stroke-linecap:square;stroke-linejoin:miter;stroke-width:0.8;"/>
   </g>
   <g id="patch_5">
    <path d="M 57.6 307.584 
L 414.72 307.584 
" style="fill:none;stroke:#000000;stroke-linecap:square;stroke-linejoin:miter;stroke-width:0.8;"/>
   </g>
   <g id="patch_6">
    <path d="M 57.6 41.472 
L 414.72 41.472 
" style="fill:none;stroke:#000000;stroke-linecap:square;stroke-linejoin:miter;stroke-width:0.8;"/>
   </g>
   <g id="legend_1">
    <g id="patch_7">
     <path d="M 64.6 302.584 
L 162.664062 302.584 
Q 164.664062 302.584 164.664062 300.584 
L 164.664062 228.193375 
Q 164.664062 226.193375 162.664062 226.193375 
L 64.6 226.193375 
Q 62.6 226.193375 62.6 228.193375 
L 62.6 300.584 
Q 62.6 302.584 64.6 302.584 
z
" style="fill:#ffffff;opacity:0.8;stroke:#cccccc;stroke-linejoin:miter;"/>
    </g>
    <g id="line2d_17">
     <path d="M 66.6 234.291812 
L 86.6 234.291812 
" style="fill:none;stroke:#1f77b4;stroke-linecap:square;stroke-width:3;"/>
    </g>
    <g id="line2d_18"/>
    <g id="text_14">
     <!-- motion 1 -->
     <g transform="translate(94.6 237.791812)scale(0.1 -0.1)">
      <defs>
       <path d="M 3328 2828 
Q 3544 3216 3844 3400 
Q 4144 3584 4550 3584 
Q 5097 3584 5394 3201 
Q 5691 2819 5691 2113 
L 5691 0 
L 5113 0 
L 5113 2094 
Q 5113 2597 4934 2840 
Q 4756 3084 4391 3084 
Q 3944 3084 3684 2787 
Q 3425 2491 3425 1978 
L 3425 0 
L 2847 0 
L 2847 2094 
Q 2847 2600 2669 2842 
Q 2491 3084 2119 3084 
Q 1678 3084 1418 2786 
Q 1159 2488 1159 1978 
L 1159 0 
L 581 0 
L 581 3500 
L 1159 3500 
L 1159 2956 
Q 1356 3278 1631 3431 
Q 1906 3584 2284 3584 
Q 2666 3584 2933 3390 
Q 3200 3197 3328 2828 
z
" id="DejaVuSans-6d" transform="scale(0.015625)"/>
       <path d="M 1959 3097 
Q 1497 3097 1228 2736 
Q 959 2375 959 1747 
Q 959 1119 1226 758 
Q 1494 397 1959 397 
Q 2419 397 2687 759 
Q 2956 1122 2956 1747 
Q 2956 2369 2687 2733 
Q 2419 3097 1959 3097 
z
M 1959 3584 
Q 2709 3584 3137 3096 
Q 3566 2609 3566 1747 
Q 3566 888 3137 398 
Q 2709 -91 1959 -91 
Q 1206 -91 779 398 
Q 353 888 353 1747 
Q 353 2609 779 3096 
Q 1206 3584 1959 3584 
z
" id="DejaVuSans-6f" transform="scale(0.015625)"/>
       <path d="M 603 3500 
L 1178 3500 
L 1178 0 
L 603 0 
L 603 3500 
z
M 603 4863 
L 1178 4863 
L 1178 4134 
L 603 4134 
L 603 4863 
z
" id="DejaVuSans-69" transform="scale(0.015625)"/>
       <path d="M 3513 2113 
L 3513 0 
L 2938 0 
L 2938 2094 
Q 2938 2591 2744 2837 
Q 2550 3084 2163 3084 
Q 1697 3084 1428 2787 
Q 1159 2491 1159 1978 
L 1159 0 
L 581 0 
L 581 3500 
L 1159 3500 
L 1159 2956 
Q 1366 3272 1645 3428 
Q 1925 3584 2291 3584 
Q 2894 3584 3203 3211 
Q 3513 2838 3513 2113 
z
" id="DejaVuSans-6e" transform="scale(0.015625)"/>
       <path id="DejaVuSans-20" transform="scale(0.015625)"/>
      </defs>
      <use xlink:href="#DejaVuSans-6d"/>
      <use x="97.412109" xlink:href="#DejaVuSans-6f"/>
      <use x="158.59375" xlink:href="#DejaVuSans-74"/>
      <use x="197.802734" xlink:href="#DejaVuSans-69"/>
      <use x="225.585938" xlink:href="#DejaVuSans-6f"/>
      <use x="286.767578" xlink:href="#DejaVuSans-6e"/>
      <use x="350.146484" xlink:href="#DejaVuSans-20"/>
      <use x="381.933594" xlink:href="#DejaVuSans-31"/>
     </g>
    </g>
    <g id="line2d_19">
     <path d="M 66.6 248.969937 
L 86.6 248.969937 
" style="fill:none;stroke:#ff7f0e;stroke-linecap:square;stroke-width:3;"/>
    </g>
    <g id="line2d_20"/>
    <g id="text_15">
     <!-- motion 2 -->
     <g transform="translate(94.6 252.469937)scale(0.1 -0.1)">
      <use xlink:href="#DejaVuSans-6d"/>
      <use x="97.412109" xlink:href="#DejaVuSans-6f"/>
      <use x="158.59375" xlink:href="#DejaVuSans-74"/>
      <use x="197.802734" xlink:href="#DejaVuSans-69"/>
      <use x="225.585938" xlink:href="#DejaVuSans-6f"/>
      <use x="286.767578" xlink:href="#DejaVuSans-6e"/>
      <use x="350.146484" xlink:href="#DejaVuSans-20"/>
      <use x="381.933594" xlink:href="#DejaVuSans-32"/>
     </g>
    </g>
    <g id="line2d_21">
     <path d="M 66.6 263.648062 
L 86.6 263.648062 
" style="fill:none;stroke:#2ca02c;stroke-linecap:square;stroke-width:1.5;"/>
    </g>
    <g id="line2d_22"/>
    <g id="text_16">
     <!-- blend -->
     <g transform="translate(94.6 267.148062)scale(0.1 -0.1)">
      <defs>
       <path d="M 3116 1747 
Q 3116 2381 2855 2742 
Q 2594 3103 2138 3103 
Q 1681 3103 1420 2742 
Q 1159 2381 1159 1747 
Q 1159 1113 1420 752 
Q 1681 391 2138 391 
Q 2594 391 2855 752 
Q 3116 1113 3116 1747 
z
M 1159 2969 
Q 1341 3281 1617 3432 
Q 1894 3584 2278 3584 
Q 2916 3584 3314 3078 
Q 3713 2572 3713 1747 
Q 3713 922 3314 415 
Q 2916 -91 2278 -91 
Q 1894 -91 1617 61 
Q 1341 213 1159 525 
L 1159 0 
L 581 0 
L 581 4863 
L 1159 4863 
L 1159 2969 
z
" id="DejaVuSans-62" transform="scale(0.015625)"/>
       <path d="M 603 4863 
L 1178 4863 
L 1178 0 
L 603 0 
L 603 4863 
z
" id="DejaVuSans-6c" transform="scale(0.015625)"/>
       <path d="M 3597 1894 
L 3597 1613 
L 953 1613 
Q 991 1019 1311 708 
Q 1631 397 2203 397 
Q 2534 397 2845 478 
Q 3156 559 3463 722 
L 3463 178 
Q 3153 47 2828 -22 
Q 2503 -91 2169 -91 
Q 1331 -91 842 396 
Q 353 884 353 1716 
Q 353 2575 817 3079 
Q 1281 3584 2069 3584 
Q 2775 3584 3186 3129 
Q 3597 2675 3597 1894 
z
M 3022 2063 
Q 3016 2534 2758 2815 
Q 2500 3097 2075 3097 
Q 1594 3097 1305 2825 
Q 1016 2553 972 2059 
L 3022 2063 
z
" id="DejaVuSans-65" transform="scale(0.015625)"/>
       <path d="M 2906 2969 
L 2906 4863 
L 3481 4863 
L 3481 0 
L 2906 0 
L 2906 525 
Q 2725 213 2448 61 
Q 2172 -91 1784 -91 
Q 1150 -91 751 415 
Q 353 922 353 1747 
Q 353 2572 751 3078 
Q 1150 3584 1784 3584 
Q 2172 3584 2448 3432 
Q 2725 3281 2906 2969 
z
M 947 1747 
Q 947 1113 1208 752 
Q 1469 391 1925 391 
Q 2381 391 2643 752 
Q 2906 1113 2906 1747 
Q 2906 2381 2643 2742 
Q 2381 3103 1925 3103 
Q 1469 3103 1208 2742 
Q 947 2381 947 1747 
z
" id="DejaVuSans-64" transform="scale(0.015625)"/>
      </defs>
      <use xlink:href="#DejaVuSans-62"/>
      <use x="63.476562" xlink:href="#DejaVuSans-6c"/>
      <use x="91.259766" xlink:href="#DejaVuSans-65"/>
      <use x="152.783203" xlink:href="#DejaVuSans-6e"/>
      <use x="216.162109" xlink:href="#DejaVuSans-64"/>
     </g>
    </g>
    <g id="line2d_23">
     <path d="M 66.6 278.326188 
L 86.6 278.326188 
" style="fill:none;stroke:#000000;stroke-dasharray:3.7,1.6;stroke-dashoffset:0;"/>
    </g>
    <g id="line2d_24"/>
    <g id="text_17">
     <!-- now -->
     <g transform="translate(94.6 281.826188)scale(0.1 -0.1)">
      <defs>
       <path d="M 269 3500 
L 844 3500 
L 1563 769 
L 2278 3500 
L 2956 3500 
L 3675 769 
L 4391 3500 
L 4966 3500 
L 4050 0 
L 3372 0 
L 2619 2869 
L 1863 0 
L 1184 0 
L 269 3500 
z
" id="DejaVuSans-77" transform="scale(0.015625)"/>
      </defs>
      <use xlink:href="#DejaVuSans-6e"/>
      <use x="63.378906" xlink:href="#DejaVuSans-6f"/>
      <use x="124.560547" xlink:href="#DejaVuSans-77"/>
     </g>
    </g>
    <g id="line2d_25">
     <path d="M 66.6 293.004312 
L 86.6 293.004312 
" style="fill:none;stroke:#1f77b4;stroke-dasharray:3.7,1.6;stroke-dashoffset:0;"/>
    </g>
    <g id="line2d_26"/>
    <g id="text_18">
     <!-- now+horizon -->
     <g transform="translate(94.6 296.504312)scale(0.1 -0.1)">
      <defs>
       <path d="M 2944 4013 
L 2944 2272 
L 4684 2272 
L 4684 1741 
L 2944 1741 
L 2944 0 
L 2419 0 
L 2419 1741 
L 678 1741 
L 678 2272 
L 2419 2272 
L 2419 4013 
L 2944 4013 
z
" id="DejaVuSans-2b" transform="scale(0.015625)"/>
       <path d="M 3513 2113 
L 3513 0 
L 2938 0 
L 2938 2094 
Q 2938 2591 2744 2837 
Q 2550 3084 2163 3084 
Q 1697 3084 1428 2787 
Q 1159 2491 1159 1978 
L 1159 0 
L 581 0 
L 581 4863 
L 1159 4863 
L 1159 2956 
Q 1366 3272 1645 3428 
Q 1925 3584 2291 3584 
Q 2894 3584 3203 3211 
Q 3513 2838 3513 2113 
z
" id="DejaVuSans-68" transform="scale(0.015625)"/>
       <path d="M 2631 2963 
Q 2534 3019 2420 3045 
Q 2306 3072 2169 3072 
Q 1681 3072 1420 2755 
Q 1159 2438 1159 1844 
L 1159 0 
L 581 0 
L 581 3500 
L 1159 3500 
L 1159 2956 
Q 1341 3275 1631 3429 
Q 1922 3584 2338 3584 
Q 2397 3584 2469 3576 
Q 2541 3569 2628 3553 
L 2631 2963 
z
" id="DejaVuSans-72" transform="scale(0.015625)"/>
       <path d="M 353 3500 
L 3084 3500 
L 3084 2975 
L 922 459 
L 3084 459 
L 3084 0 
L 275 0 
L 275 525 
L 2438 3041 
L 353 3041 
L 353 3500 
z
" id="DejaVuSans-7a" transform="scale(0.015625)"/>
      </defs>
      <use xlink:href="#DejaVuSans-6e"/>
      <use x="63.378906" xlink:href="#DejaVuSans-6f"/>
      <use x="124.560547" xlink:href="#DejaVuSans-77"/>
      <use x="206.347656" xlink:href="#DejaVuSans-2b"/>
      <use x="290.136719" xlink:href="#DejaVuSans-68"/>
      <use x="353.515625" xlink:href="#DejaVuSans-6f"/>
      <use x="414.697266" xlink:href="#DejaVuSans-72"/>
      <use x="455.810547" xlink:href="#DejaVuSans-69"/>
      <use x="483.59375" xlink:href="#DejaVuSans-7a"/>
      <use x="536.083984" xlink:href="#DejaVuSans-6f"/>
      <use x="597.265625" xlink:href="#DejaVuSans-6e"/>
     </g>
    </g>
   </g>
  </g>
 </g>
 <defs>
  <clipPath id="p04e9bf3116">
   <rect height="266.112" width="357.12" x="57.6" y="41.472"/>
  </clipPath>
 </defs>
</svg>
